<?xml version="1.0" encoding="UTF-8" standalone="no"?>
<!DOCTYPE svg PUBLIC "-//W3C//DTD SVG 1.1//EN" "http://www.w3.org/Graphics/SVG/1.1/DTD/svg11.dtd">
<svg width="100%" height="100%" viewBox="0 0 185 225" version="1.1" xmlns="http://www.w3.org/2000/svg" xmlns:xlink="http://www.w3.org/1999/xlink" xml:space="preserve" xmlns:serif="http://www.serif.com/" style="fill-rule:evenodd;clip-rule:evenodd;stroke-linejoin:round;stroke-miterlimit:2;">
    <g>
        <path d="M123.5,-0.5L135.5,-0.5C139.497,0.651 143.497,2.151 147.5,4C158.237,14.315 168.404,25.148 178,36.5C180.757,41.336 182.923,46.336 184.5,51.5L184.5,69.5C181.243,82.748 175.743,95.081 168,106.5C159.623,116.378 150.456,125.378 140.5,133.5C150.447,143.371 159.947,153.704 169,164.5C179.427,189.929 172.26,208.763 147.5,221C142.722,222.249 138.055,223.416 133.5,224.5L118.5,224.5C99.831,220.717 84.498,211.217 72.5,196C67.526,196.27 62.526,196.77 57.5,197.5C48.34,197.836 40.84,194.502 35,187.5C27.705,178.536 20.038,169.87 12,161.5C7.212,150.634 9.046,141.134 17.5,133C21.176,130.829 24.843,128.663 28.5,126.5C21.146,118.314 13.98,109.981 7,101.5C2.962,94.551 0.462,87.217 -0.5,79.5L-0.5,63.5C2.787,47.7 11.12,35.2 24.5,26C44.4,16.05 61.734,19.217 76.5,35.5C81.906,27.92 87.906,20.753 94.5,14C103.165,7.001 112.831,2.168 123.5,-0.5Z" style="fill:rgb(66,66,66);"/>
    </g>
    <g>
        <path d="M125.5,7.5C140.29,5.804 149.457,12.138 153,26.5C153.819,44.379 149.152,60.712 139,75.5C123.265,95.692 103.265,109.692 79,117.5C75.243,127.415 70.41,136.748 64.5,145.5C71.1,153.603 78.766,160.437 87.5,166C95.678,167.849 99.511,164.682 99,156.5C97.556,154.845 95.722,154.178 93.5,154.5C93.372,152.345 93.872,150.345 95,148.5C105.679,134.967 118.846,131.8 134.5,139C142.116,145.849 144.616,154.349 142,164.5C137.669,179.821 127.502,188.321 111.5,190C102.342,191.093 93.342,190.426 84.5,188C71.32,181.588 60.32,172.588 51.5,161C47.867,161.422 44.2,162.089 40.5,163C32.871,164.731 26.038,163.231 20,158.5C15.424,147.146 18.924,139.313 30.5,135C36.215,133.56 41.881,133.06 47.5,133.5C49.601,129.024 51.601,124.524 53.5,120C30.897,117.795 16.064,105.962 9,84.5C5.351,65.45 10.517,49.283 24.5,36C34.985,28.503 46.319,26.836 58.5,31C68.032,36.563 67.698,41.563 57.5,46C46.617,56.311 43.784,68.478 49,82.5C52.079,87.835 56.579,90.668 62.5,91C68.55,68.828 78.05,48.328 91,29.5C100.134,18.198 111.634,10.865 125.5,7.5Z" style="fill:rgb(247,239,178);"/>
    </g>
    <g>
        <path d="M124.5,26.5C131.388,26.572 134.055,30.072 132.5,37C130.438,51.457 124.104,63.79 113.5,74C106.188,79.983 98.355,85.15 90,89.5C94.663,69.797 102.663,51.464 114,34.5C116.975,30.953 120.475,28.286 124.5,26.5Z" style="fill:rgb(67,67,66);"/>
    </g>
</svg>
