<?xml version="1.0" encoding="UTF-8" standalone="no"?>
<!DOCTYPE svg PUBLIC "-//W3C//DTD SVG 1.1//EN" "http://www.w3.org/Graphics/SVG/1.1/DTD/svg11.dtd">
<svg width="100%" height="100%" viewBox="0 0 3548 1808" version="1.1" xmlns="http://www.w3.org/2000/svg" xmlns:xlink="http://www.w3.org/1999/xlink" xml:space="preserve" xmlns:serif="http://www.serif.com/" style="fill-rule:evenodd;clip-rule:evenodd;stroke-linejoin:round;stroke-miterlimit:2;">
    <g transform="matrix(5.64903,0,0,5.64903,-744.449,-1548.13)">
        <path d="M449,327C440.132,334.531 435.355,319.948 427,316.971C420.89,314.793 415.925,318.433 410,318.853C400.591,319.519 388.942,316.096 381.39,324.214C378.864,326.93 377.405,330.625 376,334C372.201,330.203 368.304,325.316 363,323.653C357.258,321.853 352.517,324.362 347,325.221C341.463,326.084 335.648,324.61 330,325.428C325.376,326.098 321.395,328.953 317,329.583C314.334,329.964 311.644,328.38 309,328.108C300.75,327.26 292.445,328.722 286,334C285.75,322.278 279.707,314.376 272.169,306C265.961,299.102 259.939,289.904 251,286.468C229.569,278.232 204.675,297.743 196,316C192.331,311.506 188.405,307.007 183,304.558C159.631,293.97 136.588,314.931 132.616,337C130.405,349.282 132.553,361.637 139.595,372C144.456,379.154 151.116,384.858 156,392C144.795,394.167 136.928,405.805 140.97,417C142.721,421.85 146.47,425.264 149.831,429C154.209,433.866 158.316,439.266 163.17,443.671C167.876,447.941 174.689,450.067 181,449.946C184.598,449.877 188.586,448.181 192,449.893C199.433,453.62 204.55,461.871 212,466.121C219.345,470.312 228.52,472.821 237,472.821C240.025,472.821 242.958,471.911 246,472.119C250.092,472.399 253.837,473.903 258,474C258.521,485.397 264.184,493.174 272,501C282.427,511.44 291.89,517.875 307,518C303.571,531.253 302.367,545.879 307.09,559C309.715,566.291 314.618,571.611 320,577C332.983,589.999 346.343,597.295 365,592.522C394.904,584.871 418.428,554.896 431,528L433,528C440.132,543.295 457.436,553.146 474,550.699C479.074,549.95 482.916,546.502 487.715,545.464C490.177,544.931 492.597,546.444 495.004,546.787C498.689,547.312 502.471,546.612 506,545.56C511.041,544.058 515.094,540.028 520,538.692C524.078,537.582 528.817,540.696 533,540.895C545.574,541.493 549.172,531.923 553,522C557.755,526.742 563.158,533.045 570,534.606C590.639,539.314 606.822,521.356 616.996,506C620.185,501.187 624.365,495.736 625.61,490C628.219,477.977 617.86,475.41 612.773,466.83C610.273,462.614 612.254,456.611 609.836,452C605.016,442.811 592.016,430.585 581,431.105C575.315,431.373 570.771,435.125 565.424,435.708C552.413,437.124 534.279,431.839 528,448C520.502,442.898 515.284,439.79 506,442C516.046,426.618 521.82,407.659 504,395C510.825,388.175 521.154,379.825 523.581,370C525.81,360.978 519.324,355.149 513.834,349C510.367,345.117 506.419,341.368 503.549,337C501.697,334.182 501.017,330.82 499.146,328C497.039,324.826 493.576,322.433 491.904,319C489.869,314.824 492.479,309.588 490.891,305C489.536,301.084 486.913,298.102 484.27,295C478.206,287.884 470.831,276.089 461,274.329C451.35,272.603 441.068,279.105 439.33,289C438.579,293.279 440.752,296.914 440.5,301C440.224,305.473 435.286,308.135 436.782,313C438.485,318.537 444.452,323.787 449,327Z" style="fill:rgb(67,67,67);fill-rule:nonzero;"/>
    </g>
    <g transform="matrix(5.64903,0,0,5.64903,-744.449,-1548.13)">
        <path d="M443,310C453.702,313.164 469.25,296.784 465.382,286.019C462.423,277.784 450.793,280.844 447.573,287.09C444.318,293.402 449.728,297.275 448.644,302.996C448.066,306.045 445.223,308.153 443,310Z" style="fill:rgb(247,240,180);fill-rule:nonzero;"/>
    </g>
    <g transform="matrix(5.64903,0,0,5.64903,-744.449,-1548.13)">
        <path d="M158,379L159,380L158,379M206,379L207,380L206,379M265,379C266.248,379.685 266.548,379.749 268,380C266.752,379.315 266.452,379.251 265,379M364,379L365,380L364,379M382,379L383,380L382,379M518,379L519,380L518,379M146,380L147,381L146,380M204,380L205,381L204,380M289,380L290,381L289,380M363,380L364,381L363,380M419,380L420,381L419,380M517,380L518,381L517,380M147,381L148,382L147,381M162,381L163,382L162,381M201,381L202,382L201,381M320,381L321,382L320,381M365,381L366,382L365,381M417,381L418,382L417,381M516,381L517,382L516,381M148,382L149,383L148,382M165,382L166,383L165,382M198,382L199,383L198,382M242,382L242,389C243.059,386.466 243.059,384.534 242,382M366,382L367,383L366,382M381,382L382,383L381,382M414.667,382.333C414.222,382.778 415.278,382.722 415.333,382.667C415.778,382.222 414.722,382.278 414.667,382.333M149,383L150,384L149,383M167,383C168.248,383.685 168.548,383.749 170,384C168.752,383.315 168.452,383.251 167,383M288,383L289,384L288,383M319,383L320,384L319,383M367,383L368,384L367,383M406,383C408.052,383.874 409.747,383.953 412,384C409.948,383.126 408.253,383.047 406,383M150,384L151,385L150,384M172.667,384.333C172.222,384.778 173.278,384.722 173.333,384.667C173.778,384.222 172.722,384.278 172.667,384.333M197,384L198,385L197,384M368,384L369,385L368,384M176,385L177,386L176,385M287,385L288,386L287,385M300,385L301,386L300,385M357,385L358,386L357,385M371.667,385.333C371.222,385.778 372.278,385.722 372.333,385.667C372.778,385.222 371.722,385.278 371.667,385.333M378,385L379,386L378,385M324,477C321.131,475.341 318.515,473.567 316.394,470.96C305.961,458.138 317.034,441.764 329,434.88C340.452,428.292 351.594,430.744 364,431C341.596,459.25 316.804,493.513 311.579,530C309.153,546.945 313.641,569.708 333,573.985C353.105,578.427 371.88,564.434 384.985,551C405.351,530.123 419.386,501.39 431.139,475C437.218,461.35 441.72,444.647 451.329,433C456.745,426.434 463.904,420.164 473,421.189C477.298,421.673 482.844,426.469 486.957,424.264C497.686,418.51 498.096,400.189 490.786,392.044C474.384,373.766 445.163,391.729 433.465,406C422.244,419.689 415.987,436.812 409.397,453C401.591,472.174 393.627,491.539 384.244,510C379.915,518.517 375.077,527.345 367.985,533.895C364.894,536.75 360.451,539.842 356,539.586C348.794,539.173 346.308,530.958 346.039,525C345.393,510.657 350.54,496.111 355.8,483C362.592,466.072 372.093,447.092 385.171,434.108C391.297,428.025 405.633,425.322 404.667,414.015C403.708,402.799 386.111,409.332 381,412.769C379.063,414.072 377.245,415.652 375,416.41C371.784,417.497 368.236,416.61 365,416.08C338.908,411.81 308.834,415.428 287,431.04C271.439,442.166 260.539,462.848 266.785,482C275.403,508.423 317.16,500.245 324,477M513,385L514,386L513,385M196,386L197,387L196,386M289,386L290,387L289,386M336,386L337,387L336,386M512,386L513,387L512,386M286,387C286.545,388.635 286.365,388.455 288,389C287.455,387.365 287.635,387.545 286,387M288,387L289,388L288,387M337,387L338,388L337,387M354,387L355,388L354,387M511,387L512,388L511,387M175,388L176,389L175,388Z" style="fill:rgb(133,211,255);fill-rule:nonzero;"/>
    </g>
    <g transform="matrix(5.64903,0,0,5.64903,-744.449,-1548.13)">
        <path d="M156,436L157,437L156,436M542.667,436.333C542.222,436.778 543.278,436.722 543.333,436.667C543.778,436.222 542.722,436.278 542.667,436.333M565,436L566,437L565,436M595,436L596,437L595,436M157,437L158,438L157,437M194,437L195,438L194,437M258,437L259,438L258,437M538.667,437.333C538.222,437.778 539.278,437.722 539.333,437.667C539.778,437.222 538.722,437.278 538.667,437.333M596,437L597,438L596,437M158,438L159,439L158,438M257,438L258,439L257,438M508,438L509,439L508,438M536,438L537,439L536,438M557,453C558.664,449.315 560.372,446.028 561,442C553.23,442 543.646,441.347 537.213,446.649C532.778,450.304 531.009,456.952 528.691,462C523.572,473.149 518.771,485.208 511.24,494.985C507.795,499.457 498.164,505.093 498.294,494.999C498.394,487.266 504.387,477.98 507.424,471C510.678,463.522 516.157,456.228 517,448C508.277,448.006 496.284,448.085 492,457C487.996,455.546 484.391,453.136 480,453.083C459.292,452.83 443.316,474.712 437.054,492C432.975,503.262 431.569,521.231 443.04,528.867C450.337,533.724 459.512,532.249 467,528.673C469.761,527.354 472.795,524.349 476,524.507C479.074,524.658 481.784,526.772 485,526.955C495.214,527.536 502.239,520.742 509,514C512.448,520.301 523.674,524.789 529.005,517.772C532.047,513.768 533.303,507.67 535.05,503C540.766,487.718 548.609,464.166 566,459C564.674,471.941 554.299,482.982 551.805,496C550.842,501.024 550.372,507.443 553.728,511.775C557.547,516.708 564.636,516.294 570,514.841C583.121,511.288 592.565,498.992 599.564,488C601.705,484.638 608.346,476.499 605.917,472.323C604.081,469.164 600.619,471.099 598.901,473.149C594.846,477.99 592.417,483.645 586.999,487.346C584.726,488.899 581.009,490.592 579.032,487.667C576.709,484.231 579.624,479.222 581.001,476C584.668,467.416 590.957,458.544 591.748,449C592.468,440.308 584.287,436.99 577,438.928C573.796,439.78 570.755,441.275 568,443.105C563.874,445.845 560.484,449.518 557,453M597,438L598,439L597,438M159,439L160,440L159,439M197,439L198,440L197,439M256,439L257,440L256,439M507,439L508,440L507,439M534,439L535,440L534,439M598,439L599,440L598,439M160,440L161,441L160,440M199,440L200,441L199,440M481,440C482.506,440.683 483.315,440.826 485,441C483.494,440.317 482.685,440.174 481,440M506,440L506,442L508,442C507.455,440.365 507.635,440.545 506,440Z" style="fill:rgb(133,211,255);fill-rule:nonzero;"/>
    </g>
    <g transform="matrix(5.64903,0,0,5.64903,-744.449,-1548.13)">
        <path d="M484,471C471.847,471.292 463.627,482.434 459.619,493C458.106,496.989 456.575,503.79 459.179,507.682C464.489,515.618 472.375,501.973 474.138,498C475.742,494.386 477.132,490.67 478.6,487C480.697,481.759 483.16,476.61 484,471Z" style="fill:rgb(67,67,67);fill-rule:nonzero;"/>
    </g>
    <g transform="matrix(5.64903,0,0,5.64903,-744.449,-1548.13)">
        <path d="M185,362C169.929,357.565 167.295,340.874 175.928,329C178.228,325.836 185.793,321.005 185.793,316.976C185.793,311.891 177.794,310.033 174,309.441C149.579,305.625 135.197,332.936 139.515,354C143.352,372.717 159.021,382.579 177,385C175.299,388.589 173.693,394.924 169.787,396.687C167.488,397.724 164.459,396.973 162,397.304C155.248,398.213 148.285,401.587 147.218,409C146.985,410.616 146.997,412.403 147.434,413.985C151.414,428.375 169.311,416.069 177,422.188C185.246,428.751 191.101,436.717 201,441.201C208.869,444.765 217.628,443.961 226,443.681C229.607,443.56 232.514,445.279 236,445.786C240.375,446.423 244.955,445.38 249,443.742C260.853,438.944 268.688,427.006 274.191,416C276.143,412.097 277.342,407.664 279.815,404.039C284.872,396.626 294.592,391.39 301,385C302.993,390.559 312.118,395.516 316.775,389.566C319.218,386.446 320.36,381.657 321.797,378C326.583,365.82 332.281,349.381 346,345C343.837,357.136 333.814,366.931 334.359,380C334.618,386.221 340.032,390.293 346,389.695C353.932,388.901 359.5,384.382 365,379C367.632,384.464 376.355,389.175 380.914,382.772C390.245,369.667 390.483,342.938 410,339C409.416,342.274 408.229,345.017 406.752,348L403.753,354C399.672,362.188 392.266,382.488 408,382.977C409.999,383.039 412.048,382.922 414,382.471C417.301,381.708 420.281,380.054 422.999,378.072C427.463,374.816 430.581,370.252 435,367C437.549,374.477 443.591,377.38 451,378.42C466.326,380.571 480.253,369.74 489.826,359C493.362,355.034 502.805,343.923 494,341L487,353C485.964,346.877 487.667,341.03 485.034,335C482.684,329.62 477.235,325.709 475.692,320C475.008,317.469 476.622,312.994 473.667,311.619C470.483,310.137 466.611,312.547 464.854,315.109C460.86,320.933 459.298,326.699 453.985,331.985C449.38,336.567 442.764,338.974 438.789,344.093C434.522,349.59 432.419,361.784 424.019,362.94C418.454,363.705 419.846,356.958 421.016,354C423.824,346.907 429.31,339.83 429.772,332C430.114,326.189 425.556,322.739 420,323.508C417.936,323.793 415.873,324.503 414,325.403C410.395,327.134 407.322,329.812 404,332C404.868,329.645 405.574,327.469 406,325C399.777,325.004 391.099,324.569 386.39,329.344C378.546,337.301 376.461,350.767 370.251,360C367.999,363.348 365.093,367.953 361.001,369.199C355.81,370.779 355.167,365.617 356.472,362C359.164,354.543 364.446,347.999 365.671,340C366.446,334.934 364.499,330.601 358.996,330.123C357.336,329.979 355.62,330.158 354,330.529C351.887,331.014 349.875,331.876 348,332.955C344.671,334.872 341.813,337.417 339,340L342,332C336.076,332 328.401,331.125 323.39,335.005C316.873,340.053 313.58,352.725 310.11,360C304.942,370.836 295.79,382.104 286,389C290.702,377.54 295.864,366.149 301.258,355C304.38,348.549 308.733,342.11 310,335C304.475,335.001 297.051,334.441 292.39,338.008C289.379,340.314 287.861,344.688 286.258,348C281.751,357.314 279.291,369.953 270.96,376.752C267.115,379.89 262.918,378.265 263.387,372.999C263.881,367.457 267.798,360.818 270.436,356C273.589,350.241 277.822,344.527 279,338C273.735,338.001 266.855,337.479 262.105,340.175C258.552,342.192 256.985,346.528 255.247,350C251.273,357.941 246.456,366.318 244.34,375C241.864,385.151 242.043,401.829 257,398.316C259.86,397.645 262.398,396.315 265,395C262.496,400.509 254.248,404.736 248,403.172C244.131,402.204 241.007,399.386 237,398.519C225.967,396.129 212.687,402.698 210,414C215.326,415.618 216.044,421.968 209.956,423.551C202.685,425.442 196.396,417.503 192.005,413C189.882,410.822 186.932,408.38 187.542,405C187.99,402.52 189.935,400.16 191.138,398C193.664,393.465 195.294,386.145 199.394,382.843C206.136,377.412 216.584,375.565 224,370.644C243.1,357.972 258.396,338.63 259.91,315C260.103,311.975 259.825,308.959 259.181,306C255.041,286.997 232.323,290.467 220,298.749C204.125,309.419 194.793,329.217 189.283,347C187.739,351.982 185.764,356.826 185,362Z" style="fill:rgb(247,240,180);fill-rule:nonzero;"/>
    </g>
    <g transform="matrix(5.64903,0,0,5.64903,-744.449,-1548.13)">
        <path d="M462,333L459,337C460.069,338.727 462.434,341.368 461.659,343.587C460.024,348.268 451.561,349.013 453.698,355.941C455.262,361.015 461.591,360.071 464.892,357.486C472.383,351.62 471.752,335.887 462,333Z" style="fill:rgb(67,67,67);fill-rule:nonzero;"/>
    </g>
    <g transform="matrix(5.64903,0,0,5.64903,-744.449,-1548.13)">
        <path d="M207,359C221.77,354.737 235.839,340.519 240.641,326C242.117,321.537 245.635,311.18 239.852,308.411C233.956,305.589 227.934,312.842 225.093,317C216.408,329.715 211.713,344.51 207,359Z" style="fill:rgb(67,67,67);fill-rule:nonzero;"/>
    </g>
</svg>
